<?xml version="1.0" encoding="utf-8"?>
<!-- Generator: Adobe Illustrator 23.0.5, SVG Export Plug-In . SVG Version: 6.00 Build 0)  -->
<svg version="1.1" xmlns="http://www.w3.org/2000/svg" xmlns:xlink="http://www.w3.org/1999/xlink" x="0px" y="0px"
	 viewBox="0 0 64 64" style="enable-background:new 0 0 64 64;" xml:space="preserve">
<style type="text/css">
	.st0{opacity:0.5;}
	.st1{fill:#CCCCCC;}
	.st2{fill:#666666;}
	.st3{display:none;}
	.st4{display:inline;}
	.st5{clip-path:url(#SVGID_2_);}
</style>
<g id="Layer_5">
	<g class="st0">
		<polygon class="st1" points="18.96,19.36 35.87,9.87 35.87,52.13 18.96,43.02 		"/>
		<g>
			<path class="st2" d="M19.15,19.69c5.64-3.16,11.27-6.33,16.91-9.49c-0.19-0.11-0.38-0.22-0.56-0.32c0,12.34,0,24.67,0,37.01
				c0,1.75,0,3.51,0,5.26c0.19-0.11,0.38-0.22,0.56-0.32c-5.34-2.88-10.69-5.76-16.03-8.64c-0.23-0.12-0.57-0.41-0.83-0.45
				c0.23,0.04,0.06,0.5,0.14-0.04c0.15-1.07,0-2.28,0-3.36c0-3.9,0-7.8,0-11.71c0-2.75,0-5.5,0-8.26c0-0.48-0.75-0.48-0.75,0
				c0,6.89,0,13.79,0,20.68c0,0.99,0,1.98,0,2.98c0,0.13,0.07,0.26,0.19,0.32c5.64,3.04,11.27,6.07,16.91,9.11
				c0.25,0.13,0.56-0.03,0.56-0.32c0-12.34,0-24.67,0-37.01c0-1.75,0-3.51,0-5.26c0-0.29-0.32-0.46-0.56-0.32
				c-5.64,3.16-11.27,6.33-16.91,9.49C18.35,19.27,18.73,19.92,19.15,19.69z"/>
		</g>
	</g>
	<g class="st0">
		<rect x="3.73" y="21.96" class="st1" width="13.4" height="19"/>
		<g>
			<path class="st2" d="M17.13,40.59c-4.47,0-8.93,0-13.4,0c0.13,0.13,0.25,0.25,0.38,0.38c0-5.55,0-11.1,0-16.65
				c0-0.78,0-1.57,0-2.35c-0.13,0.13-0.25,0.25-0.38,0.38c4.47,0,8.93,0,13.4,0c-0.13-0.13-0.25-0.25-0.38-0.38
				c0,5.55,0,11.1,0,16.65c0,0.78,0,1.57,0,2.35c0,0.48,0.75,0.48,0.75,0c0-5.55,0-11.1,0-16.65c0-0.78,0-1.57,0-2.35
				c0-0.2-0.17-0.38-0.38-0.38c-4.47,0-8.93,0-13.4,0c-0.2,0-0.38,0.17-0.38,0.38c0,5.55,0,11.1,0,16.65c0,0.78,0,1.57,0,2.35
				c0,0.2,0.17,0.38,0.38,0.38c4.47,0,8.93,0,13.4,0C17.61,41.34,17.61,40.59,17.13,40.59z"/>
		</g>
	</g>
</g>
<g id="Layer_1">
	<g>
		<g>
			<path class="st2" d="M17.13,40.59c-4.47,0-8.93,0-13.4,0c0.13,0.13,0.25,0.25,0.38,0.38c0-5.55,0-11.1,0-16.65
				c0-0.78,0-1.57,0-2.35c-0.13,0.13-0.25,0.25-0.38,0.38c4.47,0,8.93,0,13.4,0c-0.13-0.13-0.25-0.25-0.38-0.38
				c0,5.55,0,11.1,0,16.65c0,0.78,0,1.57,0,2.35c0,0.48,0.75,0.48,0.75,0c0-5.55,0-11.1,0-16.65c0-0.78,0-1.57,0-2.35
				c0-0.2-0.17-0.38-0.38-0.38c-4.47,0-8.93,0-13.4,0c-0.2,0-0.38,0.17-0.38,0.38c0,5.55,0,11.1,0,16.65c0,0.78,0,1.57,0,2.35
				c0,0.2,0.17,0.38,0.38,0.38c4.47,0,8.93,0,13.4,0C17.61,41.34,17.61,40.59,17.13,40.59z"/>
		</g>
	</g>
	<g>
		<g>
			<path class="st2" d="M19.15,19.69c5.64-3.16,11.27-6.33,16.91-9.49c-0.19-0.11-0.38-0.22-0.56-0.32c0,12.34,0,24.67,0,37.01
				c0,1.75,0,3.51,0,5.26c0.19-0.11,0.38-0.22,0.56-0.32c-5.34-2.88-10.69-5.76-16.03-8.64c-0.23-0.12-0.57-0.41-0.83-0.45
				c0.23,0.04,0.06,0.5,0.14-0.04c0.15-1.07,0-2.28,0-3.36c0-3.9,0-7.8,0-11.71c0-2.75,0-5.5,0-8.26c0-0.48-0.75-0.48-0.75,0
				c0,6.89,0,13.79,0,20.68c0,0.99,0,1.98,0,2.98c0,0.13,0.07,0.26,0.19,0.32c5.64,3.04,11.27,6.07,16.91,9.11
				c0.25,0.13,0.56-0.03,0.56-0.32c0-12.34,0-24.67,0-37.01c0-1.75,0-3.51,0-5.26c0-0.29-0.32-0.46-0.56-0.32
				c-5.64,3.16-11.27,6.33-16.91,9.49C18.35,19.27,18.73,19.92,19.15,19.69z"/>
		</g>
	</g>
</g>
<g id="Layer_2">
</g>
<g id="Layer_4" class="st3">
	<g class="st4">
		<defs>
			<polygon id="SVGID_1_" points="38.07,24.96 43.79,2.36 61.67,15.49 60.59,41.19 43.55,62.7 37.58,37.92 36.5,53.1 			"/>
		</defs>
		<clipPath id="SVGID_2_">
			<use xlink:href="#SVGID_1_"  style="overflow:visible;"/>
		</clipPath>
		<g class="st5">
			<g>
				<path class="st2" d="M38.43,23.98c3.87,0.68,7.03,3.87,6.95,7.94c-0.08,4-3.33,7.08-7.15,7.69c-1.43,0.22-0.82,2.39,0.6,2.17
					c4.82-0.76,8.69-4.93,8.8-9.85c0.11-4.99-3.78-9.27-8.6-10.11C37.61,21.57,37,23.73,38.43,23.98L38.43,23.98z"/>
			</g>
		</g>
		<g class="st5">
			<g>
				<path class="st2" d="M38.82,47.35c5.67-0.88,10.62-4.65,12.86-9.95c2.36-5.59,1.18-12.01-2.84-16.52
					c-2.51-2.82-5.98-4.66-9.68-5.31c-1.42-0.25-2.02,1.92-0.6,2.17c7.16,1.25,12.86,7.59,12.04,15.07
					c-0.71,6.49-6.08,11.39-12.38,12.37C36.8,45.4,37.41,47.57,38.82,47.35L38.82,47.35z"/>
			</g>
		</g>
		<g class="st5">
			<g>
				<path class="st2" d="M38.68,12.61c7.22,1.22,13.53,6.21,15.76,13.3c2.15,6.83-0.06,14.25-5.2,19.13
					c-3.04,2.88-6.88,4.65-11.01,5.28c-1.43,0.22-0.82,2.39,0.6,2.17c7.9-1.2,14.7-6.67,17.47-14.19c2.75-7.5,0.67-15.98-4.91-21.62
					c-3.27-3.29-7.54-5.46-12.1-6.24C37.86,10.2,37.25,12.37,38.68,12.61L38.68,12.61z"/>
			</g>
		</g>
	</g>
</g>
<g id="Layer_3">
	<g>
		<g>
			<path class="st2" d="M53.92,23.73c-4.21,4.05-8.42,8.1-12.63,12.15c-0.6,0.57-1.19,1.15-1.79,1.72c-1.05,1.01,0.55,2.6,1.59,1.59
				c4.21-4.05,8.42-8.1,12.63-12.15c0.6-0.57,1.19-1.15,1.79-1.72C56.56,24.31,54.96,22.72,53.92,23.73L53.92,23.73z"/>
		</g>
	</g>
	<g>
		<g>
			<path class="st2" d="M40.05,25.05c4.05,4.21,8.1,8.42,12.15,12.63c0.57,0.6,1.15,1.19,1.72,1.79c1.01,1.05,2.6-0.55,1.59-1.59
				c-4.05-4.21-8.1-8.42-12.15-12.63c-0.57-0.6-1.15-1.19-1.72-1.79C40.63,22.41,39.04,24.01,40.05,25.05L40.05,25.05z"/>
		</g>
	</g>
</g>
</svg>
