<?xml version="1.0" encoding="utf-8"?>
<!-- Generator: Adobe Illustrator 23.0.5, SVG Export Plug-In . SVG Version: 6.00 Build 0)  -->
<svg version="1.1" xmlns="http://www.w3.org/2000/svg" xmlns:xlink="http://www.w3.org/1999/xlink" x="0px" y="0px"
	 viewBox="0 0 64 64" style="enable-background:new 0 0 64 64;" xml:space="preserve">
<style type="text/css">
	.st0{display:none;}
	.st1{clip-path:url(#SVGID_2_);fill:#6D6E71;}
	.st2{fill:#6D6E71;}
</style>
<g id="Layer_2">
	<g id="Layer_4" class="st0">
	</g>
	<g>
		<defs>
			<polygon id="SVGID_1_" points="15.91,12.75 51.87,38.63 51,39.37 51.16,49.87 12.32,22.25 -0.03,56.72 58.39,58.94 64.11,1.05 
				5.5,2.23 1.51,59.63 2.55,59.63 			"/>
		</defs>
		<clipPath id="SVGID_2_">
			<use xlink:href="#SVGID_1_"  style="overflow:visible;"/>
		</clipPath>
		<path class="st1" d="M21.7,47.94c-0.62-2.21-5.41-2.53-8.4-2.14c-2.68,0.34-6.45,3.32-6.53,5.96c-0.09,2.65,3.58,3.74,6.72,3.9
			C17.76,55.87,22.59,52.19,21.7,47.94z"/>
		<polygon class="st1" points="21.8,49.59 18.83,49.59 18.83,16.63 21.8,16.3 		"/>
		<polygon class="st1" points="47.86,20.73 47.73,12.83 46.82,12.96 20.34,16.49 21.38,24.26 		"/>
		<path class="st1" d="M47.75,44.47c-0.62-2.21-5.41-2.53-8.4-2.14c-2.68,0.34-6.45,3.32-6.53,5.96c-0.09,2.65,3.58,3.74,6.72,3.9
			C43.81,52.4,48.64,48.72,47.75,44.47z"/>
		<polygon class="st1" points="47.86,46.12 44.88,46.12 44.88,13.22 47.86,12.83 		"/>
		<path class="st1" d="M61.18,38.06"/>
	</g>
</g>
<g id="Layer_3">
	<g>
		<line class="st2" x1="55.95" y1="48.04" x2="13.96" y2="17.1"/>
		<g>
			<path class="st2" d="M57.21,45.88c-4.72-3.48-9.44-6.96-14.16-10.44c-7.53-5.55-15.07-11.1-22.6-16.66
				c-1.74-1.28-3.48-2.57-5.22-3.85c-1.09-0.8-2.79-0.18-3.42,0.9c-0.74,1.27-0.19,2.62,0.9,3.42c4.72,3.48,9.44,6.96,14.16,10.44
				c7.53,5.55,15.07,11.1,22.6,16.66c1.74,1.28,3.48,2.57,5.22,3.85c1.09,0.8,2.79,0.18,3.42-0.9
				C58.85,48.03,58.3,46.69,57.21,45.88L57.21,45.88z"/>
		</g>
	</g>
</g>
</svg>
